<svg xmlns="http://www.w3.org/2000/svg" viewBox="0 0 391 59"><defs><linearGradient id="a" x1="40" x2="40" y1="50.1" y2="8.1" gradientUnits="userSpaceOnUse"><stop offset="0" stop-color="#0e6b72"/><stop offset=".5" stop-color="#02bfd2"/><stop offset="1" stop-color="#0e6b72"/></linearGradient></defs><path fill="#dae3f2" fill-rule="evenodd" d="M119.2 19.7h-3.8L112 33a40.8 40.8 0 00-1.1 5.7 50 50 0 00-1.2-5.6L106 19.7h-3.7l-3.7 13.4-.7 2.6q-.4 1.6-.5 3a57.5 57.5 0 00-1-5.7L93 19.7h-3.8l3 11.4 3 11.5h4L103 29l.6-2.4.5-2.6.5 2.4.6 2.5 4 13.7h4zm17 19.7h-9.3v-7.2h8.7v-3.1h-8.7v-6.2h9.2v-3.2h-13v22.9h13v-3.2zm5.7 3.2h8.3a9.3 9.3 0 006-1.8 5.9 5.9 0 002.1-4.8 5.4 5.4 0 00-1.1-3.6 6 6 0 00-3.6-1.8v-.2a4.6 4.6 0 003-1.6 5.3 5.3 0 001-3.4 4.8 4.8 0 00-2-4.3q-2.2-1.4-6.9-1.4h-6.8v22.9zm3.7-19.8h3.3a7.3 7.3 0 013.7.8 2.5 2.5 0 011.2 2.3 2.8 2.8 0 01-1.1 2.5 6.2 6.2 0 01-3.5.7h-3.6v-6.3zm3.8 9.4a6.5 6.5 0 013.7.8 3 3 0 011.3 2.7 3.3 3.3 0 01-1.2 2.8 5.9 5.9 0 01-3.6 1h-4v-7.3h3.8z"/><path fill="#31c1d2" fill-rule="evenodd" d="M175.8 42.6l7.9-20.3h.1l-.2 5.5v14.8h2.6V19.7h-4L175 38.6h-.2l-7.2-18.9h-4v22.9h2.4V28q0-3.3-.2-5.7h.1l7.8 20.3h2.1zm34.7 0l-9-23h-2.3l-9 23h2.7l2.8-7.3h9.2l2.8 7.3h2.8zm-13.9-9.7l2.7-7a29.4 29.4 0 001-3.4l1 3.3L204 33h-7.4zm35.7-13.2h-2.5v13.1l.1 3.3.1 2.7-12.6-19h-3v22.8h2.5v-13q0-2.8-.3-6.2h.2l12.5 19.2h3V19.7zm24.3 22.9l-9-23h-2.3l-9 23h2.7l2.8-7.3h9.2l2.8 7.3h2.8zm-13.9-9.7l2.7-7a29.6 29.6 0 001-3.4l1 3.3 2.7 7.1h-7.4zm27.2 0h5.2v7a19.8 19.8 0 01-4.7.6q-4.4 0-6.6-2.4t-2.3-7a9.6 9.6 0 012.4-6.9 8.6 8.6 0 016.5-2.4 15.3 15.3 0 016 1.3l1-2.4a17.3 17.3 0 00-6.8-1.3 13.4 13.4 0 00-6.4 1.4 9.7 9.7 0 00-4 4 13 13 0 00-1.5 6.3q0 5.6 2.9 8.7t8 3a28.2 28.2 0 004.4-.2 25 25 0 003.7-1v-11H270V33zm26.9 7.3h-10.1v-8.4h9.5v-2.4h-9.5v-7.3h10.1v-2.4H284v22.9h12.8v-2.4zm18.2 2.4l7.8-20.3h.1l-.2 5.5v14.8h2.7V19.7h-4L314 38.6h-.2l-7.2-18.9h-4v22.9h2.4V28q0-3.3-.2-5.7h.1l7.8 20.3h2.2zm30.2-2.4h-10.1v-8.4h9.5v-2.4h-9.5v-7.3h10.1v-2.4h-12.8v22.9h12.8v-2.4zM369 19.7h-2.5v16.4q0 2.3.2 2.7h-.1l-12.5-19h-3v22.8h2.4v-13l-.2-6.2h.1L366 42.6h3V19.7zm14.1 2.4h7.3v-2.4h-17.2v2.4h7.3v20.5h2.6V22z"/><path fill="#dae3f2" d="M10.4.3h58.5v57.8H10.4z" /><path fill="#fff" fill-rule="evenodd" d="M.8 27.8l15.7 4.5 12 18.8V21.7l20.3 28.5V21.8l8.2 9.8h20.3L60 27.8 45 9.1v27.7L24.7 9.1v27.7l-6-9H.8z" /><path fill="url(#a)" fill-rule="evenodd" d="M1.8 26.8l15.7 4.5 12 18.8V20.7l20.3 28.5V20.8l8.2 9.8h20.3L61 26.8 46 8.1v27.7L25.7 8.1v27.7l-6-9h-18z"/></svg>